# xmcd
# Copyright (C) 1995-1998 Ti Kan
#
# Track frame offsets:
#       150
#       19188
#       36932
#       54345
#       76097
#       97241
#       118733
#       140117
#       160521
#       181834
#       200975
#       218092
#       238745
#
# Disc length: 3354 seconds
#
# Revision: 2
# Processed by: cddbd v1.5.2PL0 Copyright (c) Steve Scherf et al.
# Submitted via: CD-Transfer v1.0
#
DISCID=b60d180d
DTITLE=Stilltone - 13 States Of Mind
DYEAR=2006
DGENRE=
TTITLE0=When I Look In The Mirror
TTITLE1=Twilight
TTITLE2=Find A Way
TTITLE3=This Calm Before The Storm
TTITLE4=The Game
TTITLE5=Doubt
TTITLE6=Walk On Water
TTITLE7=Somewhere
TTITLE8=Timebomb
TTITLE9=Lost
TTITLE10=Plastic Fantastic
TTITLE11=Top Of The Mountain
TTITLE12=Desert View
EXTD=
EXTT0=
EXTT1=
EXTT2=
EXTT3=
EXTT4=
EXTT5=
EXTT6=
EXTT7=
EXTT8=
EXTT9=
EXTT10=
EXTT11=
EXTT12=
PLAYORDER=
